<svg xmlns="http://www.w3.org/2000/svg" viewBox="0 0 1280 300" width="1280" height="300" role="img" aria-label="JumaBek — an assistant that writes its own skills">
  <rect width="1280" height="300" fill="#101010"/>
  <rect x=".5" y=".5" width="1279" height="299" fill="none" stroke="#212121" stroke-width="1"/>
  <g fill="#f3f3f3" aria-hidden="true">
    <circle cx="424.0" cy="84.0" r="4.08"/>
    <circle cx="436.0" cy="84.0" r="4.08"/>
    <circle cx="448.0" cy="84.0" r="4.08"/>
    <circle cx="436.0" cy="96.0" r="4.08"/>
    <circle cx="436.0" cy="108.0" r="4.08"/>
    <circle cx="436.0" cy="120.0" r="4.08"/>
    <circle cx="436.0" cy="132.0" r="4.08"/>
    <circle cx="400.0" cy="144.0" r="4.08"/>
    <circle cx="436.0" cy="144.0" r="4.08"/>
    <circle cx="412.0" cy="156.0" r="4.08"/>
    <circle cx="424.0" cy="156.0" r="4.08"/>
    <circle cx="472.0" cy="84.0" r="4.08"/>
    <circle cx="520.0" cy="84.0" r="4.08"/>
    <circle cx="472.0" cy="96.0" r="4.08"/>
    <circle cx="520.0" cy="96.0" r="4.08"/>
    <circle cx="472.0" cy="108.0" r="4.08"/>
    <circle cx="520.0" cy="108.0" r="4.08"/>
    <circle cx="472.0" cy="120.0" r="4.08"/>
    <circle cx="520.0" cy="120.0" r="4.08"/>
    <circle cx="472.0" cy="132.0" r="4.08"/>
    <circle cx="520.0" cy="132.0" r="4.08"/>
    <circle cx="472.0" cy="144.0" r="4.08"/>
    <circle cx="520.0" cy="144.0" r="4.08"/>
    <circle cx="484.0" cy="156.0" r="4.08"/>
    <circle cx="496.0" cy="156.0" r="4.08"/>
    <circle cx="508.0" cy="156.0" r="4.08"/>
    <circle cx="544.0" cy="84.0" r="4.08"/>
    <circle cx="592.0" cy="84.0" r="4.08"/>
    <circle cx="544.0" cy="96.0" r="4.08"/>
    <circle cx="556.0" cy="96.0" r="4.08"/>
    <circle cx="580.0" cy="96.0" r="4.08"/>
    <circle cx="592.0" cy="96.0" r="4.08"/>
    <circle cx="544.0" cy="108.0" r="4.08"/>
    <circle cx="568.0" cy="108.0" r="4.08"/>
    <circle cx="592.0" cy="108.0" r="4.08"/>
    <circle cx="544.0" cy="120.0" r="4.08"/>
    <circle cx="568.0" cy="120.0" r="4.08"/>
    <circle cx="592.0" cy="120.0" r="4.08"/>
    <circle cx="544.0" cy="132.0" r="4.08"/>
    <circle cx="592.0" cy="132.0" r="4.08"/>
    <circle cx="544.0" cy="144.0" r="4.08"/>
    <circle cx="592.0" cy="144.0" r="4.08"/>
    <circle cx="544.0" cy="156.0" r="4.08"/>
    <circle cx="592.0" cy="156.0" r="4.08"/>
    <circle cx="628.0" cy="84.0" r="4.08"/>
    <circle cx="640.0" cy="84.0" r="4.08"/>
    <circle cx="652.0" cy="84.0" r="4.08"/>
    <circle cx="616.0" cy="96.0" r="4.08"/>
    <circle cx="664.0" cy="96.0" r="4.08"/>
    <circle cx="616.0" cy="108.0" r="4.08"/>
    <circle cx="664.0" cy="108.0" r="4.08"/>
    <circle cx="616.0" cy="120.0" r="4.08"/>
    <circle cx="628.0" cy="120.0" r="4.08"/>
    <circle cx="640.0" cy="120.0" r="4.08"/>
    <circle cx="652.0" cy="120.0" r="4.08"/>
    <circle cx="664.0" cy="120.0" r="4.08"/>
    <circle cx="616.0" cy="132.0" r="4.08"/>
    <circle cx="664.0" cy="132.0" r="4.08"/>
    <circle cx="616.0" cy="144.0" r="4.08"/>
    <circle cx="664.0" cy="144.0" r="4.08"/>
    <circle cx="616.0" cy="156.0" r="4.08"/>
    <circle cx="664.0" cy="156.0" r="4.08"/>
    <circle cx="688.0" cy="84.0" r="4.08"/>
    <circle cx="700.0" cy="84.0" r="4.08"/>
    <circle cx="712.0" cy="84.0" r="4.08"/>
    <circle cx="724.0" cy="84.0" r="4.08"/>
    <circle cx="688.0" cy="96.0" r="4.08"/>
    <circle cx="736.0" cy="96.0" r="4.08"/>
    <circle cx="688.0" cy="108.0" r="4.08"/>
    <circle cx="736.0" cy="108.0" r="4.08"/>
    <circle cx="688.0" cy="120.0" r="4.08"/>
    <circle cx="700.0" cy="120.0" r="4.08"/>
    <circle cx="712.0" cy="120.0" r="4.08"/>
    <circle cx="724.0" cy="120.0" r="4.08"/>
    <circle cx="688.0" cy="132.0" r="4.08"/>
    <circle cx="736.0" cy="132.0" r="4.08"/>
    <circle cx="688.0" cy="144.0" r="4.08"/>
    <circle cx="736.0" cy="144.0" r="4.08"/>
    <circle cx="688.0" cy="156.0" r="4.08"/>
    <circle cx="700.0" cy="156.0" r="4.08"/>
    <circle cx="712.0" cy="156.0" r="4.08"/>
    <circle cx="724.0" cy="156.0" r="4.08"/>
    <circle cx="760.0" cy="84.0" r="4.08"/>
    <circle cx="772.0" cy="84.0" r="4.08"/>
    <circle cx="784.0" cy="84.0" r="4.08"/>
    <circle cx="796.0" cy="84.0" r="4.08"/>
    <circle cx="808.0" cy="84.0" r="4.08"/>
    <circle cx="760.0" cy="96.0" r="4.08"/>
    <circle cx="760.0" cy="108.0" r="4.08"/>
    <circle cx="760.0" cy="120.0" r="4.08"/>
    <circle cx="772.0" cy="120.0" r="4.08"/>
    <circle cx="784.0" cy="120.0" r="4.08"/>
    <circle cx="796.0" cy="120.0" r="4.08"/>
    <circle cx="760.0" cy="132.0" r="4.08"/>
    <circle cx="760.0" cy="144.0" r="4.08"/>
    <circle cx="760.0" cy="156.0" r="4.08"/>
    <circle cx="772.0" cy="156.0" r="4.08"/>
    <circle cx="784.0" cy="156.0" r="4.08"/>
    <circle cx="796.0" cy="156.0" r="4.08"/>
    <circle cx="808.0" cy="156.0" r="4.08"/>
    <circle cx="832.0" cy="84.0" r="4.08"/>
    <circle cx="880.0" cy="84.0" r="4.08"/>
    <circle cx="832.0" cy="96.0" r="4.08"/>
    <circle cx="868.0" cy="96.0" r="4.08"/>
    <circle cx="832.0" cy="108.0" r="4.08"/>
    <circle cx="856.0" cy="108.0" r="4.08"/>
    <circle cx="832.0" cy="120.0" r="4.08"/>
    <circle cx="844.0" cy="120.0" r="4.08"/>
    <circle cx="832.0" cy="132.0" r="4.08"/>
    <circle cx="856.0" cy="132.0" r="4.08"/>
    <circle cx="832.0" cy="144.0" r="4.08"/>
    <circle cx="868.0" cy="144.0" r="4.08"/>
    <circle cx="832.0" cy="156.0" r="4.08"/>
    <circle cx="880.0" cy="156.0" r="4.08"/>
  </g>
  <line x1="394" y1="214" x2="886" y2="214" stroke="#212121" stroke-width="1"/>
  <text x="640.0" y="253" font-family="Aeonik, ui-sans-serif, system-ui, -apple-system, BlinkMacSystemFont, &apos;Segoe UI&apos;, Roboto, sans-serif" font-size="20" font-weight="400" fill="#9c9c9c" text-anchor="middle">An assistant that writes its own skills when it runs out of them.</text>
</svg>
